<svg width="512" height="512" viewBox="0 0 512 512" fill="none" xmlns="http://www.w3.org/2000/svg">
  <defs>
    <linearGradient id="bg" x1="72" y1="52" x2="442" y2="466" gradientUnits="userSpaceOnUse">
      <stop stop-color="#7A2C37"/>
      <stop offset="1" stop-color="#261218"/>
    </linearGradient>
    <linearGradient id="shine" x1="126" y1="118" x2="378" y2="404" gradientUnits="userSpaceOnUse">
      <stop stop-color="#FFD9D1"/>
      <stop offset="1" stop-color="#FFAF95"/>
    </linearGradient>
  </defs>
  <rect x="24" y="24" width="464" height="464" rx="112" fill="url(#bg)"/>
  <rect x="40" y="40" width="432" height="432" rx="96" stroke="#FFF4F4" stroke-opacity="0.12" stroke-width="4"/>
  <path d="M144 132V380H252V326H204V132H144Z" fill="url(#shine)"/>
  <path d="M284 132C240 132 208 163 208 206V306C208 349 240 380 284 380H336C380 380 412 349 412 306V280H352V304C352 319 342 330 326 330H294C278 330 268 319 268 304V208C268 193 278 182 294 182H326C342 182 352 193 352 208V228H412V206C412 163 380 132 336 132H284Z" fill="url(#shine)"/>
  <path d="M120 110H392" stroke="#FFF4F4" stroke-opacity="0.08" stroke-width="12" stroke-linecap="round"/>
  <path d="M120 402H392" stroke="#FFB4A0" stroke-opacity="0.08" stroke-width="12" stroke-linecap="round"/>
</svg>
